<svg id="图层_1" data-name="图层 1" fill="#969696" xmlns="http://www.w3.org/2000/svg" viewBox="0 0 200 200"><title>tijiao</title><path d="M47.86,88.57a6.48,6.48,0,0,1-5-2.14,6.9,6.9,0,0,1,0-10L95,24.29a7.07,7.07,0,1,1,10,10L52.86,86.43A6.48,6.48,0,0,1,47.86,88.57Z"/><path d="M152.86,89.29a6.48,6.48,0,0,1-5-2.14L95,34.29a7.07,7.07,0,0,1,10-10l52.86,52.86a6.9,6.9,0,0,1,0,10,6.48,6.48,0,0,1-5,2.14Z"/><path d="M100,150a6.75,6.75,0,0,1-7.14-7.14v-100a7.14,7.14,0,1,1,14.29,0v100A6.75,6.75,0,0,1,100,150Z"/><path d="M146.43,175.71H53.57a21,21,0,0,1-21.43-21.43V145a6.75,6.75,0,0,1,7.14-7.14A6.75,6.75,0,0,1,46.43,145v9.29a6.75,6.75,0,0,0,7.14,7.14h92.86a6.75,6.75,0,0,0,7.14-7.14V145a7.14,7.14,0,0,1,14.29,0v9.29a21,21,0,0,1-21.43,21.43Z"/></svg>