<svg id="图层_1" data-name="图层 1"  fill="#4eb4ae" xmlns="http://www.w3.org/2000/svg" viewBox="0 0 200 200"><title>video</title><path d="M35,81.43a6.81,6.81,0,1,0-4.81-2A6.85,6.85,0,0,0,35,81.43Z"/><path d="M189,53.86a13.38,13.38,0,0,0-7.23-2,18.45,18.45,0,0,0-8,2L136.64,71.73V65.42A21.47,21.47,0,0,0,115.2,44H25.77A21.47,21.47,0,0,0,4.33,65.42v77.46a21.47,21.47,0,0,0,21.44,21.44H115.2a21.46,21.46,0,0,0,21.44-21.44V136.6l37.09,18.07a18.44,18.44,0,0,0,8.09,2,13.29,13.29,0,0,0,7.17-2c4.24-2.66,6.67-7.66,6.67-13.72V67.59C195.67,61.53,193.24,56.53,189,53.86Zm-3.21,13.73V141c0,2.54-.76,4.54-2,5.33a3.65,3.65,0,0,1-2,.49,8.81,8.81,0,0,1-3.74-1l-41.42-20.18V82.71l41.38-20a8.88,8.88,0,0,1,3.73-1,3.66,3.66,0,0,1,2,.5C185,63.05,185.78,65,185.78,67.59ZM14.22,65.42A11.56,11.56,0,0,1,25.77,53.87H115.2a11.56,11.56,0,0,1,11.55,11.55v77.46a11.56,11.56,0,0,1-11.55,11.55H25.77a11.56,11.56,0,0,1-11.55-11.55Z"/></svg>