<svg id="图层_1" data-name="图层 1" xmlns="http://www.w3.org/2000/svg" viewBox="0 0 200 200"><title>24h</title><path d="M0,103.75c0,16.25,15,30,32.5,30v-60C15,73.75,0,87.5,0,103.75Z"/><path d="M167.5,73.75V132.5c18.75,0,32.5-13.75,32.5-30S185,73.75,167.5,73.75Z"/><path d="M155,143.75c-8.75,12.5-22.5,20-36.25,25-2.5-5-8.75-7.5-16.25-7.5-10,0-17.5,6.25-17.5,13.75s7.5,13.75,17.5,13.75c7.5,0,13.75-3.75,16.25-8.75,17.5-5,33.75-15,43.75-28.75a5.89,5.89,0,0,0-1.25-7.5C160,141.25,157.5,141.25,155,143.75Z"/><path d="M128.75,25A56.52,56.52,0,0,1,157.5,50l3.75,7.5C162.5,60,165,61.25,167.5,60s3.75-3.75,2.5-6.25-2.5-6.25-5-8.75c-7.5-12.5-20-22.5-33.75-28.75C91.25-1.25,45,15,26.25,53.75c-1.25,2.5,0,5,2.5,6.25h2.5a9.48,9.48,0,0,0,5-2.5C53.75,23.75,95,10,128.75,25Z"/><path d="M65,103.75c7.5-6.25,10-12.5,10-17.5a14.19,14.19,0,0,0-3.75-10A25,25,0,0,0,60,73.75,21.12,21.12,0,0,0,47.5,77.5v8.75c2.5-3.75,7.5-5,11.25-5A5.9,5.9,0,0,1,65,87.5c0,2.5,0,3.75-1.25,5A16.66,16.66,0,0,1,57.5,100L45,112.5V120H75v-7.5H56.25Z"/><path d="M100,120h8.75V110h5v-6.25h-5v-30H100l-20,30V110h20ZM87.5,103.75,98.75,87.5c0-1.25,1.25-1.25,1.25-2.5V83.75h0V102.5H87.5Z"/><path d="M150,97.5v-20c0-8.75-3.75-13.75-11.25-13.75-3.75,0-7.5,2.5-10,6.25h0V48.75h-10V97.5h10V78.75c0-2.5,0-3.75,1.25-5s2.5-2.5,5-2.5c3.75,0,5,2.5,5,7.5V97.5Z"/></svg>