<svg id="图层_1" data-name="图层 1" xmlns="http://www.w3.org/2000/svg" viewBox="0 0 200 200"><title>tongzhi</title><path d="M173.71,146.1l-13.52-21V81.22c0-9.15-3.77-18.8-10.6-27.16a60.49,60.49,0,0,0-27.5-18.75l-.19-.06c-.25-.07-1.17-.33-2.52-.67V33.11c0-7.92-7.29-14.36-16.26-14.36S86.86,25.19,86.86,33.11v1.36c-1.26.32-2.06.54-2.15.57l-.14,0a60.5,60.5,0,0,0-28,18.73c-7,8.42-10.8,18.16-10.8,27.41V125.1L31.33,147.57a7.86,7.86,0,0,0,0,8.71,10.2,10.2,0,0,0,8.54,4.33H75.66c2.05,11.76,13.58,20.78,27.46,20.78s25.41-9,27.46-20.78h35.74c5.45,0,9.88-3.91,9.88-8.71a8,8,0,0,0-2.49-5.8ZM103.12,26.24c4.16,0,7.56,2.89,7.76,6.51q-1.31-.22-2.63-.39a4.73,4.73,0,0,0-1.11,0l-.47-.06a22.32,22.32,0,0,0-7.37,0l-.39.05a4.67,4.67,0,0,0-1.16,0q-1.2.15-2.39.34c.25-3.59,3.63-6.45,7.76-6.45Zm0,147.66c-9.18,0-16.88-5.69-18.82-13.29h37.63C120,168.22,112.3,173.91,103.12,173.91Zm63.2-20.78H39.91a1.41,1.41,0,0,1-1.19-.59,1.11,1.11,0,0,1,0-1.24l15-23.35a3.41,3.41,0,0,0,.55-1.85V81.22c0-16.22,14.22-33,33.09-39.07a94.26,94.26,0,0,1,10.42-2.22,4.74,4.74,0,0,0,.89,0c.66-.06,1.28-.14,1.87-.22a13.1,13.1,0,0,1,4.83,0c.6.08,1.21.16,1.87.22a4.63,4.63,0,0,0,.81,0,99.49,99.49,0,0,1,11.11,2.42c18.54,6.2,32.5,22.9,32.5,38.87V126.1a3.42,3.42,0,0,0,.56,1.85l14.33,22.26a3.78,3.78,0,0,0,.74.84,1.11,1.11,0,0,1,.39.86,1.3,1.3,0,0,1-1.4,1.22Z"/></svg>