<svg id="图层_1" data-name="图层 1" fill="#8e9296" xmlns="http://www.w3.org/2000/svg" viewBox="0 0 200 200"><title>user</title><path d="M118,185.94H83.13c-33.09,0-59.22,0-59.22-17.16v-3.43c0-32.16,26.57-58.33,59.22-58.33H118c32.65,0,59.22,26.16,59.22,58.33v3.43C177.22,185.94,149.78,185.94,118,185.94ZM83.12,117.31c-27,0-48.93,21.54-48.93,48v3.43c0,6.87,28.28,6.87,48.93,6.87H118c17.09,0,48.92,0,48.92-6.87v-3.43c0-26.49-22-48-48.92-48H83.12Zm15.7-13.73c-25.92,0-47-20.78-47-46.33s21.08-46.32,47-46.32,47,20.77,47,46.32S124.74,103.58,98.82,103.58ZM62.11,57.26c0,19.86,16.47,36,36.71,36s36.71-16.16,36.71-36-16.47-36-36.71-36S62.11,37.39,62.11,57.26Z"/></svg>