<svg id="图层_1" data-name="图层 1" xmlns="http://www.w3.org/2000/svg" viewBox="0 0 200 200"><title>xiugaimima</title><path d="M160,196.25H40c-12.5,0-21.25-11.25-21.25-23.75v-60c0-13.75,8.75-25,21.25-25V70C40,33.75,66.25,3.75,100,3.75s60,30,60,66.25c0,3.75-2.5,6.25-5,6.25s-5-2.5-5-6.25c0-30-22.5-53.75-48.75-53.75C73.75,16.25,52.5,40,52.5,70V87.5H161.25c12.5,0,21.25,11.25,21.25,23.75v60c-1.25,15-10,25-22.5,25Zm11.25-83.75c0-6.25-5-12.5-11.25-12.5H40c-6.25,0-11.25,5-11.25,12.5v60c0,6.25,5,12.5,11.25,12.5H160c6.25,0,11.25-5,11.25-12.5v-60ZM105,147.5v18.75c0,3.75-2.5,6.25-5,6.25s-5-2.5-5-6.25V147.5a17.8,17.8,0,0,1-11.25-16.25c0-11.25,7.5-18.75,16.25-18.75s16.25,7.5,16.25,17.5c0,7.5-5,15-11.25,17.5Zm-5-23.75c-2.5,0-5,2.5-5,6.25s2.5,6.25,5,6.25,5-2.5,5-6.25S102.5,123.75,100,123.75Z"/></svg>